<svg width="236" height="199" viewBox="0 0 236 199" fill="none" xmlns="http://www.w3.org/2000/svg">
<g clip-path="url(#clip0_149_226)">
<path d="M58.2516 181.582L58.7316 191.986L58.7317 191.987C58.8126 193.745 58.211 195.465 57.0591 196.767C55.9073 198.07 54.2995 198.848 52.5894 198.932L52.3799 198.942L51.594 181.907L58.2516 181.582Z" fill="#2F2E41"/>
<path d="M202.104 163.998C197.285 173.669 191.173 183.022 183.439 191.487C183.267 191.678 183.094 191.864 182.919 192.054L164.595 183.134C164.707 182.942 164.83 182.727 164.962 182.492C172.833 168.643 220.347 84.1652 218.845 65.032C219.02 66.61 224.652 118.796 202.104 163.998Z" fill="#9B3838"/>
<path d="M186.974 193.208C186.717 193.358 186.454 193.505 186.19 193.646L172.444 186.955C172.636 186.814 172.86 186.649 173.117 186.462C177.328 183.353 189.851 174.024 202.104 163.999C215.272 153.225 228.131 141.648 230.04 136.123C229.652 137.39 217.6 175.906 186.974 193.208Z" fill="#9B3838"/>
<path d="M22.8653 198.526C34.5812 198.526 44.0788 188.76 44.0788 176.712C44.0788 164.664 34.5812 154.897 22.8653 154.897C11.1495 154.897 1.65186 164.664 1.65186 176.712C1.65186 188.76 11.1495 198.526 22.8653 198.526Z" fill="#E6E6E6"/>
<path d="M31.363 167.558H14.3681C13.6172 167.558 12.8972 167.866 12.3662 168.412C11.8352 168.958 11.5365 169.698 11.5356 170.47V182.953C11.5365 183.726 11.8352 184.466 12.3662 185.012C12.8972 185.558 13.6172 185.865 14.3681 185.866H31.363C32.1139 185.865 32.8339 185.558 33.3649 185.012C33.8959 184.466 34.1946 183.726 34.1955 182.953V170.47C34.1946 169.698 33.8959 168.958 33.3649 168.412C32.8339 167.866 32.1139 167.558 31.363 167.558ZM31.363 169.222C31.4644 169.222 31.5654 169.236 31.6636 169.262L22.8675 176.478L14.1228 169.248C14.2035 169.231 14.2857 169.222 14.3681 169.222H31.363ZM31.363 184.202H14.3681C14.0463 184.201 13.7377 184.07 13.5102 183.836C13.2826 183.602 13.1546 183.284 13.1542 182.953V170.582L22.3585 178.193C22.5018 178.311 22.6801 178.376 22.864 178.376C23.0479 178.377 23.2264 178.313 23.3702 178.195L32.5769 170.642V182.953C32.5765 183.284 32.4485 183.602 32.2209 183.836C31.9934 184.07 31.6848 184.201 31.363 184.202Z" fill="black" fill-opacity="0.5"/>
<path d="M104.733 145.217L109.48 145.257C109.96 145.262 110.435 145.158 110.873 144.954C111.31 144.749 111.699 144.449 112.012 144.075C112.325 143.7 112.554 143.26 112.685 142.784C112.815 142.309 112.844 141.81 112.767 141.323C112.685 140.798 112.485 140.3 112.181 139.87C111.878 139.439 111.481 139.088 111.022 138.844C110.562 138.6 110.054 138.471 109.537 138.466C109.02 138.461 108.509 138.581 108.046 138.816L103.569 141.088L88.2594 144.599L81.7004 137.703L77.9329 144.084L86.7837 151.116L104.733 145.217Z" fill="#FFB8B8"/>
<path d="M103.844 195.647L98.2514 196.753C94.4316 184.371 90.2929 172.645 90.2932 163.575C84.8874 169.762 78.1838 173.302 70.29 174.413L71.1504 160.7L77.603 157.161L87.4787 152.474C88.3433 152.064 89.2761 151.826 90.2271 151.775C92.076 151.675 93.8955 152.281 95.3354 153.478C96.7752 154.675 97.7337 156.377 98.0262 158.257L103.844 195.647Z" fill="#2F2E41"/>
<path d="M77.0653 172.754L74.8364 174.496C73.878 175.245 72.7457 175.724 71.552 175.884C70.3584 176.044 69.1447 175.88 68.0316 175.409C61.6476 170.488 57.1121 171.939 53.0015 179.367C48.0709 173.645 46.8544 165.38 51.2548 156.829L75.6672 157.382L80.6142 155.834L77.0653 172.754Z" fill="#2F2E41"/>
<path d="M68.9351 198.381C67.5362 198.823 66.0305 198.746 64.6818 198.161C63.333 197.577 62.2273 196.523 61.5582 195.185C59.3643 193.198 57.5131 190.353 55.9076 186.893C54.7556 184.355 53.7665 181.742 52.9464 179.071C51.8355 175.543 53.6931 171.688 57.1506 170.632C57.2534 170.601 57.3575 170.571 57.4628 170.544C62.0784 169.325 66.8183 172.063 68.396 176.687L72.9837 190.132C73.2547 190.926 73.371 191.768 73.3258 192.608C73.2806 193.449 73.0748 194.272 72.7203 195.031C72.3658 195.789 71.8694 196.469 71.2595 197.03C70.6496 197.592 69.9381 198.024 69.1657 198.303C69.0894 198.33 69.0125 198.356 68.9351 198.381Z" fill="#2F2E41"/>
<path opacity="0.2" d="M55.1262 185.362C55.1262 185.362 60.5034 191.555 61.5788 195.094L55.1262 185.362Z" fill="black"/>
<path d="M34.2715 156.134L32.4719 160.651C32.2898 161.108 32.2068 161.6 32.2288 162.094C32.2508 162.587 32.3771 163.07 32.5991 163.508C32.821 163.946 33.1332 164.329 33.5138 164.63C33.8945 164.931 34.3344 165.143 34.803 165.252C35.3073 165.368 35.8312 165.362 36.3326 165.232C36.8339 165.102 37.2987 164.854 37.6894 164.506C38.0802 164.158 38.3861 163.72 38.5825 163.229C38.7788 162.737 38.8602 162.205 38.8201 161.675L38.4323 156.557L40.9503 140.636L49.613 136.936L45.2516 130.968L35.6147 136.806L34.2715 156.134Z" fill="#FFB8B8"/>
<path d="M77.2802 156.829C71.1002 167.504 58.7802 171.638 48.2282 163.279C50.0844 157.007 56.0773 139.674 52.2058 139.01C43.9855 142.555 43.9736 134.232 42.436 130.066L61.1486 122.988L71.2578 125.864L73.33 126.62C74.6786 127.112 75.8483 128.017 76.6818 129.213C77.5153 130.409 77.9726 131.839 77.9922 133.311C73.7458 139.619 70.6022 146.349 77.2802 156.829Z" fill="#701010"/>
<path d="M79.6461 148.203L72.2256 141.9L74.6991 127.191L84.8082 138.25L79.6461 148.203Z" fill="#701010"/>
<path d="M202.776 47.159H201.715V17.288C201.715 12.703 199.944 8.30569 196.791 5.06355C193.638 1.82142 189.362 0 184.903 0H123.361C118.902 0 114.626 1.82142 111.473 5.06355C108.321 8.30569 106.549 12.703 106.549 17.288V181.163C106.549 185.748 108.321 190.145 111.473 193.387C114.626 196.63 118.902 198.451 123.361 198.451H184.903C189.362 198.451 193.638 196.63 196.791 193.387C199.943 190.145 201.715 185.748 201.715 181.163V68.4217H202.775L202.776 47.159Z" fill="#3F3D56"/>
<path d="M185.581 4.49732H177.548C177.918 5.42877 178.059 6.43941 177.959 7.44019C177.859 8.44097 177.522 9.40116 176.976 10.2362C176.431 11.0711 175.694 11.7553 174.83 12.2284C173.967 12.7014 173.003 12.9488 172.025 12.9488H136.769C135.79 12.9487 134.827 12.7013 133.964 12.2283C133.101 11.7552 132.364 11.0711 131.818 10.2363C131.273 9.40139 130.935 8.44134 130.835 7.4407C130.736 6.44006 130.877 5.42953 131.246 4.49814H123.742C120.412 4.49814 117.218 5.8584 114.864 8.27967C112.509 10.7009 111.187 13.9849 111.187 17.4091V181.043C111.187 184.467 112.509 187.751 114.864 190.172C117.218 192.593 120.412 193.954 123.742 193.954H185.579C188.909 193.954 192.102 192.593 194.457 190.172C196.811 187.751 198.134 184.467 198.134 181.043V17.4083C198.134 13.9841 196.811 10.7001 194.457 8.27885C192.102 5.85757 188.909 4.49731 185.579 4.49731L185.581 4.49732Z" fill="white"/>
<path d="M154.768 184.809C158.576 184.809 161.662 181.635 161.662 177.719C161.662 173.804 158.576 170.63 154.768 170.63C150.96 170.63 147.874 173.804 147.874 177.719C147.874 181.635 150.96 184.809 154.768 184.809Z" fill="#D2D2D2"/>
<path d="M126.799 112.154C126.147 112.154 125.617 112.776 125.617 113.541C125.617 114.306 126.147 114.928 126.799 114.928H182.522C183.174 114.928 183.704 114.306 183.704 113.541C183.704 112.776 183.174 112.154 182.522 112.154H126.799Z" fill="#692626"/>
<path d="M126.799 144.876C126.147 144.876 125.617 145.498 125.617 146.263C125.617 147.028 126.147 147.65 126.799 147.65H182.522C183.174 147.65 183.704 147.028 183.704 146.263C183.704 145.498 183.174 144.876 182.522 144.876H126.799Z" fill="#692626"/>
<path d="M126.799 120.478C126.147 120.478 125.617 121.1 125.617 121.865C125.617 122.63 126.147 123.253 126.799 123.253H150.777C151.429 123.253 151.959 122.63 151.959 121.865C151.959 121.1 151.429 120.478 150.777 120.478H126.799Z" fill="#692626"/>
<path d="M126.799 128.413C126.147 128.413 125.617 129.035 125.617 129.8C125.617 130.565 126.147 131.187 126.799 131.187H182.522C183.174 131.187 183.704 130.565 183.704 129.8C183.704 129.035 183.174 128.413 182.522 128.413H126.799Z" fill="#692626"/>
<path d="M126.799 136.737C126.147 136.737 125.617 137.359 125.617 138.124C125.617 138.889 126.147 139.512 126.799 139.512H150.777C151.429 139.512 151.959 138.889 151.959 138.124C151.959 137.359 151.429 136.737 150.777 136.737H126.799Z" fill="#692626"/>
<path d="M137.318 48.9811H172.006C172.389 48.9816 172.757 49.1383 173.027 49.417C173.298 49.6956 173.451 50.0734 173.451 50.4674V87.6168C173.451 88.0108 173.298 88.3886 173.027 88.6672C172.757 88.9458 172.389 89.1026 172.006 89.103H137.318C136.935 89.1026 136.568 88.9458 136.297 88.6672C136.026 88.3886 135.874 88.0108 135.873 87.6168V50.4674C135.874 50.0734 136.026 49.6956 136.297 49.417C136.568 49.1383 136.935 48.9816 137.318 48.9811Z" fill="white"/>
<path d="M164.615 81.4422C164.744 81.4424 164.871 81.4166 164.991 81.366C165.11 81.3154 165.218 81.2412 165.31 81.1475C165.401 81.0539 165.473 80.9426 165.523 80.8201C165.572 80.6976 165.598 80.5663 165.598 80.4336C165.598 80.301 165.573 80.1696 165.523 80.0471C165.474 79.9245 165.402 79.8132 165.31 79.7194C165.219 79.6256 165.111 79.5513 164.992 79.5006C164.872 79.4499 164.745 79.4239 164.616 79.4241H144.71C144.581 79.4238 144.453 79.4497 144.334 79.5002C144.214 79.5508 144.106 79.625 144.015 79.7187C143.923 79.8124 143.851 79.9237 143.801 80.0462C143.752 80.1687 143.726 80.3 143.726 80.4326C143.726 80.5653 143.752 80.6966 143.801 80.8192C143.85 80.9417 143.923 81.0531 144.014 81.1468C144.105 81.2406 144.213 81.3149 144.333 81.3656C144.452 81.4163 144.58 81.4423 144.709 81.4422H164.615Z" fill="white"/>
<path d="M164.615 75.4971C164.875 75.4971 165.125 75.3908 165.309 75.2016C165.493 75.0123 165.596 74.7557 165.596 74.488C165.596 74.2204 165.493 73.9638 165.309 73.7745C165.125 73.5853 164.875 73.479 164.615 73.479H144.71C144.449 73.4789 144.2 73.5851 144.016 73.7742C143.832 73.9633 143.728 74.2199 143.728 74.4876C143.728 74.7552 143.831 75.0119 144.015 75.2012C144.199 75.3905 144.448 75.497 144.709 75.4971H164.615Z" fill="white"/>
<path d="M154.662 56.642C155.884 56.642 157.078 57.0145 158.094 57.7124C159.109 58.4103 159.901 59.4023 160.368 60.5628C160.836 61.7234 160.958 63.0005 160.72 64.2325C160.482 65.4646 159.893 66.5963 159.03 67.4846C158.166 68.3729 157.065 68.9778 155.867 69.2229C154.669 69.4679 153.427 69.3421 152.299 68.8614C151.17 68.3807 150.205 67.5666 149.527 66.5221C148.848 65.4776 148.486 64.2496 148.486 62.9934C148.488 61.3095 149.139 59.6951 150.297 58.5044C151.455 57.3136 153.025 56.6439 154.662 56.642Z" fill="white"/>
<path d="M75.8552 121.063H57.5188C57.1417 121.062 56.78 120.908 56.5133 120.634C56.2466 120.359 56.0966 119.988 56.0962 119.6V111.472C56.0962 108.584 57.212 105.814 59.1982 103.771C61.1843 101.729 63.8782 100.581 66.687 100.581C69.4959 100.581 72.1897 101.729 74.1759 103.771C76.162 105.814 77.2779 108.584 77.2779 111.472V119.6C77.2774 119.988 77.1274 120.36 76.8607 120.634C76.594 120.908 76.2324 121.062 75.8552 121.063Z" fill="#2F2E41"/>
<path d="M75.5249 116.418C77.5818 112.549 76.1989 107.697 72.4361 105.582C68.6732 103.467 63.9553 104.889 61.8983 108.758C59.8413 112.628 61.2242 117.479 64.9871 119.595C68.75 121.71 73.4679 120.288 75.5249 116.418Z" fill="#FFB6B6"/>
<path d="M79.7834 112.285H68.5712L68.4561 110.63L67.8813 112.285H66.1548L65.927 109.004L64.7876 112.285H61.447V112.122C61.4495 109.838 62.333 107.649 63.9035 106.033C65.4741 104.418 67.6036 103.51 69.8248 103.507H71.4056C73.6267 103.51 75.7562 104.418 77.3268 106.033C78.8974 107.649 79.7809 109.838 79.7834 112.122V112.285Z" fill="#2F2E41"/>
<path d="M68.4795 122.58C68.395 122.58 68.3108 122.572 68.2277 122.557L60.0176 121.067V107.114H69.0553L68.8316 107.382C65.7184 111.116 68.0638 117.17 69.7389 120.446C69.8624 120.686 69.9175 120.957 69.8978 121.228C69.878 121.499 69.7844 121.758 69.6276 121.977C69.4962 122.164 69.3237 122.316 69.1241 122.42C68.9245 122.525 68.7036 122.58 68.4795 122.58Z" fill="#2F2E41"/>
<path d="M95.814 191.471L105.943 191.47H105.944C107.656 191.47 109.298 192.17 110.508 193.415C111.719 194.659 112.399 196.348 112.399 198.108V198.324L95.8143 198.325L95.814 191.471Z" fill="#2F2E41"/>
<path d="M235.735 199H0.265169C0.194841 199 0.127395 198.971 0.0776659 198.92C0.0279371 198.869 0 198.8 0 198.727C0 198.655 0.0279371 198.586 0.0776659 198.535C0.127395 198.483 0.194841 198.455 0.265169 198.455H235.735C235.805 198.455 235.873 198.483 235.922 198.535C235.972 198.586 236 198.655 236 198.727C236 198.8 235.972 198.869 235.922 198.92C235.873 198.971 235.805 199 235.735 199Z" fill="#CACACA"/>
</g>
<defs>
<clipPath id="clip0_149_226">
<rect width="236" height="199" fill="white"/>
</clipPath>
</defs>
</svg>
