<svg width="248" height="235" viewBox="0 0 248 235" fill="none" xmlns="http://www.w3.org/2000/svg">
<path d="M60.0842 68.5285C59.8313 69.5375 59.8172 70.5884 60.0429 71.6071C60.2687 72.6258 60.7288 73.5875 61.3909 74.4246C62.053 75.2617 62.901 75.9537 63.875 76.452C64.8491 76.9502 65.9256 77.2426 67.0287 77.3084L81.8486 129.139L94.1829 122.381L75.0884 70.1619C75.0667 68.413 74.3634 66.7267 73.1119 65.4224C71.8605 64.1181 70.1477 63.2865 68.2983 63.0852C66.4488 62.8838 64.5911 63.3268 63.0772 64.33C61.5633 65.3332 60.4984 66.8271 60.0842 68.5285Z" fill="#A0616A"/>
<path d="M155.245 92.5791C146.41 100.755 125.07 114.745 107.641 124.181C103.874 126.221 100.287 128.044 97.0506 129.553C94.8643 130.572 92.8365 131.444 91.0174 132.143C89.7965 132.611 88.484 132.835 87.1618 132.803C85.8397 132.77 84.5365 132.481 83.3339 131.954C82.1312 131.427 81.0551 130.673 80.1728 129.74C79.2905 128.806 78.6211 127.713 78.2065 126.529L68.5658 99.4719L72.7367 97.274L83.0212 91.8513L85.3568 90.6233L93.0929 111.943L103.355 105.306L109.726 101.185L138.768 82.4066L141.192 81.9156L146.366 87.3981L150.026 91.2773L153.669 92.1452C154.214 92.2751 154.74 92.4198 155.245 92.5791Z" fill="#692626"/>
<path d="M223.621 169.949C224.144 170.672 224.687 171.394 225.23 172.118C222.905 175.907 220.337 179.556 217.538 183.047C217.358 182.908 217.179 182.769 217 182.63C216.971 182.612 216.944 182.593 216.918 182.572C216.25 182.052 215.579 181.538 214.911 181.017L214.911 181.014C214.466 179.121 214.281 177.185 214.361 175.252C214.728 175.2 215.069 175.043 215.336 174.802C215.604 174.561 215.786 174.248 215.857 173.905C215.928 173.562 215.885 173.206 215.733 172.885C215.582 172.564 215.33 172.294 215.011 172.111C214.929 171.953 214.872 171.839 214.791 171.678C214.797 171.639 214.807 171.598 214.813 171.56C215.641 167.581 221.192 166.572 223.621 169.949Z" fill="white"/>
<path d="M230.76 156.626C231.094 157.718 231.391 158.818 231.65 159.927C231.371 160.554 231.086 161.178 230.796 161.799C230.728 161.455 230.656 161.11 230.582 160.765C230.161 158.847 229.625 156.952 228.979 155.088C228.449 153.559 227.849 152.057 227.178 150.58C223.529 142.559 217.915 135.449 210.798 129.835C207.754 128.94 205.067 127.19 203.098 124.823C202.388 123.973 201.811 123.032 201.384 122.029C201.702 122.01 202.021 121.975 202.333 121.936C202.43 121.923 202.531 121.908 202.629 121.896L202.667 121.892C203.009 121.843 203.328 121.702 203.585 121.486C203.842 121.27 204.027 120.988 204.117 120.674C204.207 120.36 204.198 120.028 204.092 119.717C203.986 119.406 203.786 119.129 203.518 118.921C203.352 118.789 203.182 118.66 203.016 118.532C202.762 118.329 202.505 118.136 202.247 117.937C202.22 117.918 202.194 117.898 202.169 117.876C201.876 117.648 201.582 117.426 201.293 117.195C201.581 116.495 202.037 115.869 202.626 115.364C204.673 113.647 208.086 113.935 210.209 115.608C212.335 117.282 213.267 120.01 213.224 122.6C213.191 124.819 212.526 126.969 211.705 129.054C211.864 129.182 212.031 129.304 212.19 129.435C215.116 131.803 217.791 134.434 220.176 137.29C218.927 133.863 218.699 129.494 219.301 126.541C219.988 123.176 221.977 120.077 223.647 116.967C225.648 113.232 231.526 113.605 232.902 117.61C232.916 117.65 232.931 117.687 232.941 117.726C232.645 117.967 232.359 118.218 232.082 118.479C231.734 118.808 231.501 119.23 231.413 119.688C231.326 120.146 231.387 120.619 231.591 121.046C231.794 121.473 232.128 121.834 232.551 122.081C232.974 122.328 233.466 122.449 233.961 122.43L234.013 122.427C234.143 123.589 234.181 124.758 234.125 125.924C233.932 129.183 233.025 132.364 231.46 135.266C229.896 138.169 227.708 140.731 225.033 142.791C224.858 142.924 224.687 143.054 224.509 143.18C225.942 145.414 227.206 147.738 228.291 150.137C229.255 152.251 230.08 154.419 230.76 156.626Z" fill="#62A850"/>
<path d="M166.984 121.686L161.13 188.324L77.7843 180.038L93.1192 153.34C93.0876 152.446 99.487 146.645 99.5194 145.72C99.6122 143.007 101.943 140.657 102.497 137.852C103.63 132.065 101.147 109.725 103.355 105.306C104.302 103.33 105.469 101.455 106.835 99.7121C108.013 98.2711 109.182 97.3274 110.257 97.0332L113.833 90.4953L116.85 86.8334L138.768 82.4066L141.192 81.9157L146.366 87.3981L150.026 91.2773L153.669 92.1452C154.214 92.2751 154.74 92.4198 155.245 92.5792C157.679 93.2937 159.906 94.5332 161.748 96.1983C167.812 101.8 167.864 111.516 166.984 121.686Z" fill="#692626"/>
<path d="M210.158 191.363C207.602 193.969 204.915 196.45 202.095 198.806L193.065 198.159L144.498 194.702L135.755 194.08L129.943 193.666L121.296 193.048L114.644 192.574L102.358 191.699L95.1107 191.185L79.8499 190.095L72.565 189.578L52.378 188.139L39.6982 187.236L36.2954 186.993C35.5915 186.212 34.8997 185.42 34.2201 184.619C32.5268 182.624 30.9072 180.577 29.3615 178.477L36.4065 178.979L41.2059 179.323L52.3179 180.113L73.7612 181.643L81.0082 182.16L83.9385 182.369L83.9488 182.37L86.2493 182.533L87.2799 182.604L89.9193 182.791L91.0352 182.872L98.8607 183.431L115.741 184.631L123.169 185.162L130.283 185.669L136.952 186.145L146.52 186.826L197.622 190.47L210.158 191.363Z" fill="#CCCCCC"/>
<path d="M101.861 82.8442L101.842 82.8446C100.848 82.8596 99.8854 82.5027 99.1651 81.8525C98.4449 81.2022 98.0263 80.3119 98.0015 79.3774L97.4656 59.7129C97.366 56.1899 98.0206 52.6903 99.3906 49.4223C102.074 43.0448 107.28 37.9089 113.925 35.085C117.356 33.6314 121.07 32.8486 124.845 32.7839C140.286 32.519 145.675 35.9266 153.564 58.5981C161.452 81.2696 154.1 78.2925 154.1 78.2925C154.114 78.7665 154.026 79.2373 153.841 79.6768C153.479 80.5343 152.778 81.2242 151.883 81.6024C151.424 81.796 150.928 81.9005 150.423 81.9097C131.973 84.9312 113.342 88.1688 101.858 82.8443L101.861 82.8442Z" fill="#2F2E41"/>
<path d="M138 52.3305C140.048 55.6604 141.006 59.4775 140.753 63.2996C140.5 67.1217 139.048 70.7775 136.579 73.8052C134.11 76.8329 130.736 79.0967 126.882 80.3107C123.029 81.5247 118.869 81.6344 114.928 80.6261C112.318 79.9666 109.869 78.828 107.723 77.2763C105.576 75.7245 103.774 73.7903 102.422 71.5859C100.379 68.2574 99.4241 64.4434 99.6781 60.6247C99.9321 56.8061 101.384 53.1537 103.85 50.1283C106.316 47.1028 109.686 44.8396 113.535 43.624C117.384 42.4085 121.54 42.295 125.479 43.2979C128.091 43.9547 130.542 45.0914 132.692 46.6421C134.841 48.1928 136.646 50.1266 138 52.3313L138 52.3305Z" fill="#9E616A"/>
<path d="M90.8774 61.4173C90.7988 58.631 91.3166 55.8633 92.4 53.2786C93.0751 46.8133 95.5001 41.0883 103.894 41.9425C106.59 40.8013 109.507 40.1837 112.473 40.1265L116.657 40.0412C116.704 40.0402 116.751 40.0393 116.798 40.0386C119.696 39.9949 122.58 40.4884 125.285 41.4909C127.991 42.4934 130.464 43.9854 132.564 45.8816C134.665 47.7778 136.351 50.0411 137.527 52.5423C138.703 55.0435 139.346 57.7336 139.418 60.4589L139.429 60.8528L130.576 61.0252L127.342 53.141L126.954 61.0973L122.382 61.188L120.751 57.2103L120.555 61.2218C113.408 66.3155 103.16 65.8691 90.892 61.8118L90.8774 61.4173Z" fill="#2F2E41"/>
<path d="M117.669 81.9765C117.547 82.6144 117.619 83.2731 117.876 83.8777C118.005 84.1871 118.179 84.4785 118.394 84.7432C118.578 84.9687 118.789 85.1732 119.023 85.3525C119.717 85.8818 120.587 86.1628 121.476 86.1453C121.532 86.1439 121.587 86.1416 121.643 86.1383C121.698 86.135 121.753 86.1305 121.808 86.1247C121.864 86.1195 121.92 86.1127 121.975 86.1046C122.03 86.0964 122.086 86.0872 122.141 86.0771L125.269 85.4907L129.36 76.727L129.577 84.6921L143.798 82.0494L142.877 48.2486L118.929 48.7322L119.539 49.3697C121.563 51.5088 122.926 54.1264 123.477 56.9344C124.019 59.7787 124.04 62.6849 123.538 65.527C123.054 68.4025 122.276 71.2251 121.216 73.956C120.291 76.3751 119.218 78.7408 118.002 81.0414C117.845 81.3365 117.733 81.6513 117.669 81.9765Z" fill="#2F2E41"/>
<path d="M113.195 188.013C112.786 187.983 112.389 187.868 112.031 187.676L46.0171 184.494C45.5276 184.232 45.1328 183.838 44.8847 183.363C44.6366 182.888 44.5469 182.355 44.6274 181.834C44.7079 181.312 44.9549 180.828 45.3357 180.444C45.7166 180.06 46.2133 179.795 46.7604 179.683L90.7469 170.719C91.2024 170.626 91.6765 170.644 92.1252 170.769L158.263 183.226C158.844 183.388 159.355 183.725 159.717 184.184C160.079 184.643 160.272 185.2 160.267 185.769C160.262 186.338 160.059 186.888 159.689 187.335C159.319 187.782 158.803 188.102 158.219 188.246L114.109 187.935C113.811 188.008 113.503 188.035 113.195 188.013Z" fill="#3F3D56"/>
<path d="M115.931 183.877C115.633 183.856 115.346 183.763 115.096 183.608L61.4054 182.09C61.113 181.908 60.885 181.648 60.751 181.343C60.617 181.039 60.5832 180.704 60.654 180.383C60.7249 180.062 60.8971 179.77 61.1482 179.544C61.3993 179.318 61.7177 179.168 62.0619 179.116L81.7568 176.097C82.0641 176.05 82.38 176.082 82.6714 176.188L132.43 179.727C132.777 179.855 133.073 180.083 133.273 180.378C133.474 180.674 133.569 181.021 133.545 181.369C133.521 181.717 133.38 182.048 133.141 182.313C132.902 182.578 132.578 182.764 132.217 182.843L116.454 183.84C116.282 183.877 116.106 183.89 115.931 183.877Z" fill="#2F2E41"/>
<path d="M110.491 180.79C111.377 181.418 112.396 181.857 113.478 182.076C114.56 182.295 115.678 182.289 116.753 182.058C117.828 181.827 118.833 181.377 119.699 180.739C120.565 180.101 121.27 179.291 121.764 178.366L178.112 186.641L176.326 173.256L117.934 168.511C116.219 167.819 114.3 167.74 112.539 168.29C110.779 168.84 109.3 169.979 108.382 171.493C107.465 173.006 107.173 174.789 107.561 176.502C107.95 178.215 108.992 179.741 110.491 180.79Z" fill="#A0616A"/>
<path d="M150.157 97.3233C150.157 97.3233 159.179 91.5087 168.612 103.83C174.973 112.139 184.921 160.312 184.615 179.954C184.596 181.196 184.303 182.42 183.757 183.547C183.21 184.674 182.42 185.681 181.437 186.504C180.454 187.328 179.299 187.95 178.045 188.331C176.79 188.713 175.463 188.846 174.146 188.722L143.987 186.047L141.899 167.967L165.719 169.955L150.157 97.3233Z" fill="#692626"/>
<path d="M109.529 187.755C108.494 187.679 107.482 187.41 106.555 186.963L45.3793 183.859C43.813 183.111 42.556 181.89 41.8118 180.394C41.0675 178.898 40.8794 177.214 41.2779 175.615L42.6505 125.045C43.0816 123.266 44.2078 121.71 45.8067 120.684C47.4057 119.658 49.3611 119.236 51.2869 119.502L107.834 125.81C108.918 125.955 109.959 126.313 110.89 126.86C111.821 127.408 112.621 128.131 113.238 128.985C113.855 129.839 114.275 130.804 114.472 131.817C114.669 132.829 114.637 133.868 114.379 134.865L117.635 182.231C117.2 183.907 116.148 185.38 114.666 186.39C113.183 187.401 111.364 187.884 109.529 187.755Z" fill="#3F3D56"/>
<path d="M73.9916 34.3356L48.5052 32.426C47.8219 32.3759 47.1478 32.5824 46.6307 33.0002C46.1135 33.4179 45.7955 34.013 45.7462 34.6549L43.362 66.3657C43.3142 67.007 43.5392 67.6422 43.9878 68.1317C44.4363 68.6213 45.0715 68.9251 45.754 68.9765L59.8917 70.0368L71.2438 70.8862C71.9268 70.9368 72.6008 70.7303 73.1176 70.3123C73.6343 69.8943 73.9515 69.299 73.9993 68.6572L74.1417 66.7825L76.3868 36.9497C76.4346 36.3076 76.2092 35.6716 75.7601 35.1815C75.311 34.6913 74.6749 34.3871 73.9916 34.3356Z" fill="#E6E6E6"/>
<path d="M72.0576 36.1002L50.1544 34.4593C49.5148 34.4123 48.8837 34.6055 48.3994 34.9966C47.9151 35.3877 47.6172 35.9447 47.571 36.5456L46.0358 56.9335C45.838 59.6113 46.7786 62.263 48.6512 64.307C50.5238 66.351 53.1756 67.6205 56.0249 67.8369L60.1866 68.1473L69.5946 68.853C70.2344 68.9005 70.8659 68.7075 71.3503 68.3163C71.8346 67.9252 72.1324 67.3678 72.1781 66.7667L72.3332 64.7151L74.2997 38.5481C74.3445 37.9469 74.1336 37.3515 73.7132 36.8925C73.2928 36.4335 72.6974 36.1485 72.0576 36.1002Z" fill="white"/>
<path d="M68.5896 49.8561L51.5087 48.6218C51.3741 48.6121 51.239 48.6274 51.1111 48.6668C50.9832 48.7062 50.8651 48.769 50.7634 48.8516C50.6617 48.9342 50.5785 49.0349 50.5186 49.148C50.4586 49.2612 50.4231 49.3846 50.4139 49.5111C50.4048 49.6376 50.4222 49.7648 50.4653 49.8854C50.5084 50.006 50.5762 50.1176 50.665 50.2139C50.7537 50.3103 50.8616 50.3894 50.9825 50.4468C51.1034 50.5042 51.2349 50.5387 51.3695 50.5485L68.4504 51.7827C68.7223 51.8024 68.9904 51.7197 69.1957 51.553C69.401 51.3862 69.5267 51.149 69.5452 50.8935C69.5637 50.638 69.4734 50.3851 69.2942 50.1906C69.115 49.996 68.8615 49.8757 68.5896 49.8561Z" fill="#692626"/>
<path d="M55.6455 43.6117L51.8904 43.3404C51.6185 43.3207 51.3504 43.4034 51.1451 43.5701C50.9398 43.7369 50.8141 43.9741 50.7956 44.2296C50.7772 44.4851 50.8675 44.7379 51.0467 44.9325C51.2259 45.1271 51.4793 45.2474 51.7512 45.267L55.5063 45.5384C55.7782 45.558 56.0463 45.4754 56.2516 45.3086C56.4569 45.1418 56.5826 44.9046 56.6011 44.6491C56.6195 44.3936 56.5292 44.1408 56.35 43.9462C56.1708 43.7517 55.9174 43.6314 55.6455 43.6117Z" fill="#692626"/>
<path d="M67.9777 58.3251L50.8968 57.0908C50.6249 57.0712 50.3568 57.1538 50.1515 57.3206C49.9461 57.4873 49.8204 57.7246 49.802 57.9801C49.7835 58.2355 49.8738 58.4884 50.053 58.6829C50.2322 58.8775 50.4857 58.9978 50.7576 59.0175L67.8385 60.2517C68.1104 60.2714 68.3785 60.1887 68.5838 60.0219C68.7891 59.8552 68.9148 59.618 68.9333 59.3625C68.9517 59.107 68.8614 58.8541 68.6822 58.6596C68.503 58.465 68.2496 58.3447 67.9777 58.3251Z" fill="#692626"/>
<path d="M68.2836 54.0921L51.2027 52.8579C50.9312 52.8383 50.6636 52.9208 50.4586 53.0873C50.2536 53.2538 50.1281 53.4906 50.1097 53.7457C50.0913 54.0007 50.1814 54.2531 50.3603 54.4474C50.5392 54.6416 50.7922 54.7617 51.0637 54.7813L68.1446 56.0156C68.416 56.0352 68.6837 55.9527 68.8887 55.7862C69.0936 55.6197 69.2191 55.3829 69.2376 55.1278C69.256 54.8727 69.1659 54.6203 68.987 54.4261C68.808 54.2319 68.555 54.1118 68.2836 54.0921Z" fill="#692626"/>
<path d="M65.406 47.7412C64.2066 47.6545 63.0583 47.2356 62.1062 46.5374C61.1542 45.8392 60.4412 44.893 60.0575 43.8186C59.6737 42.7442 59.6364 41.5897 59.9503 40.5013C60.2641 39.4128 60.9151 38.4392 61.8208 37.7035C62.7265 36.9679 63.8463 36.5032 65.0385 36.3683C66.2308 36.2335 67.442 36.4344 68.5189 36.9458C69.5959 37.4572 70.4902 38.256 71.0889 39.2412C71.6875 40.2265 71.9636 41.3539 71.8822 42.481C71.7712 43.9916 71.027 45.3938 69.8129 46.38C68.5988 47.3661 67.014 47.8556 65.406 47.7412ZM66.2009 36.7403C65.0849 36.6597 63.9714 36.8918 63.0013 37.4074C62.0312 37.923 61.2481 38.6989 60.751 39.6369C60.2539 40.5749 60.0651 41.633 60.2085 42.6773C60.3519 43.7216 60.8211 44.7052 61.5567 45.5038C62.2923 46.3024 63.2612 46.8801 64.3411 47.1637C65.4209 47.4474 66.5631 47.4244 67.6232 47.0976C68.6833 46.7708 69.6138 46.1548 70.2968 45.3277C70.9799 44.5005 71.3849 43.4992 71.4607 42.4505C71.5606 41.0446 71.0629 39.6538 70.0769 38.5833C69.0908 37.5129 67.6969 36.85 66.2009 36.7403Z" fill="#692626"/>
<path d="M68.2053 44.434C67.9332 42.3716 67.1999 40.3829 66.0537 38.5989C66.0283 38.553 65.9908 38.5138 65.9448 38.4853C65.8989 38.4567 65.846 38.4396 65.7912 38.4356C65.7364 38.4316 65.6816 38.441 65.632 38.4626C65.5824 38.4843 65.5397 38.5177 65.5079 38.5595C64.2719 40.2954 63.4209 42.2497 63.005 44.307C62.9285 44.6821 63.5614 44.7245 63.6372 44.3527C63.7746 43.6862 63.9612 43.0299 64.1957 42.3885C64.2202 42.3857 64.2444 42.3806 64.2678 42.3732C65.137 42.0374 66.0971 41.9607 67.0191 42.1535C67.0271 42.1552 67.0351 42.1541 67.0431 42.1554C67.2956 42.9375 67.4767 43.7379 67.5843 44.5478C67.6343 44.9283 68.2552 44.8136 68.2053 44.434ZM64.4759 41.6764C64.8271 40.8516 65.2558 40.0583 65.7568 39.3059C66.1782 40.0149 66.5352 40.7559 66.8237 41.5207C66.0369 41.4077 65.2349 41.4609 64.4759 41.6764Z" fill="#692626"/>
</svg>
