<svg width="321" height="208" viewBox="0 0 321 208" fill="none" xmlns="http://www.w3.org/2000/svg">
<g clip-path="url(#clip0_156_477)">
<path d="M128.453 20.0631C124.542 25.8166 131.906 35.5107 124.484 37.5238L125.095 37.0016C129.575 32.2958 120.212 22.3356 124.692 17.6297C125.388 16.9395 125.985 16.181 126.472 15.3702" fill="#2F2E41"/>
<path d="M165.079 104.47C165.207 103.895 165.186 103.302 165.017 102.734C164.848 102.166 164.535 101.636 164.1 101.183C163.666 100.729 163.12 100.362 162.501 100.108C161.883 99.8544 161.207 99.7193 160.521 99.7126L150.853 75.7283L145.502 81.5527L155.724 103.963C155.787 104.949 156.271 105.88 157.085 106.58C157.898 107.281 158.984 107.703 160.137 107.765C161.291 107.828 162.431 107.527 163.341 106.919C164.252 106.312 164.87 105.441 165.079 104.47Z" fill="#FFB8B8"/>
<path d="M122.584 46.5627C122.584 46.5627 122.284 37.8806 131.375 42.8542C140.467 47.8278 160.262 94.4182 160.262 94.4182L150.411 98.9694L128.048 56.3339L122.584 46.5627Z" fill="#701010"/>
<path d="M149.407 195.367L144.867 197.023L135.224 182.858L141.924 180.413L149.407 195.367Z" fill="#FFB6B6"/>
<path d="M155.164 201.209L151.908 202.397L150.014 199.985L149.839 203.153L141.204 206.304C140.79 206.455 140.331 206.489 139.892 206.401C139.454 206.313 139.06 206.108 138.768 205.815C138.476 205.523 138.301 205.158 138.269 204.775C138.237 204.392 138.349 204.01 138.589 203.684L143.45 197.101L142.122 194.448L149.56 192.171L155.164 201.209Z" fill="#2F2E41"/>
<path d="M78.2401 200.172L73.3093 199.966L71.8918 183.626L79.17 183.93L78.2401 200.172Z" fill="#FFB6B6"/>
<path d="M80.4253 207.576L76.8891 207.428L76.421 204.551L74.6413 207.335L65.2623 206.943C64.8127 206.924 64.3819 206.783 64.0328 206.541C63.6837 206.298 63.4346 205.967 63.3218 205.595C63.209 205.222 63.2384 204.829 63.4058 204.473C63.5731 204.116 63.8697 203.814 64.2521 203.611L71.9947 199.507L72.1596 196.624L80.0146 197.355L80.4253 207.576Z" fill="#2F2E41"/>
<path d="M223.529 197.568C223.856 197.578 224.179 197.502 224.453 197.351C224.727 197.199 224.941 196.979 225.064 196.721C225.187 196.462 225.214 196.178 225.142 195.906C225.069 195.633 224.9 195.387 224.658 195.199C224.617 195.063 224.587 194.966 224.545 194.829C224.85 194.149 225.386 193.562 226.084 193.143C226.782 192.725 227.611 192.494 228.464 192.48C229.316 192.466 230.155 192.67 230.871 193.066C231.587 193.462 232.149 194.031 232.484 194.701C234.415 198.462 236.903 202.351 235.734 206.52C243.603 191.918 240.67 173.859 228.662 161.525C225.364 160.008 222.674 157.288 221.947 154.11C223.576 154.566 225.587 153.422 224.35 151.971C223.815 151.417 223.274 150.868 222.739 150.314C228.844 144.654 236.292 153.411 229.587 161.037C231.835 163.397 233.787 165.951 235.412 168.657C235.012 165.773 235.419 162.848 236.6 160.124C237.8 157.584 240.078 155.435 242.08 153.232C244.515 150.547 249.6 151.735 249.97 155.114C247.703 155.771 247.438 158.578 250.044 158.941C249.433 165.237 244.685 171.057 238.087 173.87C240.601 179.715 241.626 185.95 241.095 192.16C242.184 184.899 251.281 183.065 257.62 180.13C258.023 179.905 258.494 179.785 258.976 179.784C259.458 179.784 259.929 179.903 260.333 180.127C260.737 180.351 261.055 180.671 261.25 181.048C261.445 181.424 261.507 181.84 261.429 182.246C260.553 182.559 259.715 182.945 258.929 183.399C258.56 183.615 258.279 183.923 258.123 184.281C257.968 184.639 257.946 185.029 258.06 185.398C258.175 185.767 258.42 186.097 258.762 186.342C259.105 186.587 259.528 186.736 259.973 186.768C256.837 193.582 248.585 198.208 240.056 198.251C239.271 201.299 238.116 204.269 236.612 207.113L223.954 207.216C223.908 207.096 223.865 206.973 223.823 206.853C224.995 206.906 226.171 206.837 227.323 206.646C224.189 203.537 221.774 201.958 223.529 197.568Z" fill="#62A850"/>
<path d="M90.6968 93.9559C90.6968 93.9559 80.6692 117.293 80.5072 119.904C80.3451 122.516 77.4854 155.54 75.087 157.458C72.6886 159.377 65.356 189.126 71.0614 191.453C76.7669 193.78 94.7673 189.925 94.7673 189.925L101.029 154.785L103.156 127.863C103.156 127.863 109.633 191.259 121.378 191.072C133.124 190.886 147.437 187.066 147.437 187.066L130.997 148.673C130.997 148.673 131.229 103.221 127.419 94.0535C123.608 84.886 90.6968 93.9559 90.6968 93.9559Z" fill="#2F2E41"/>
<path d="M120.452 33.8318L107.023 34.8822L104.859 40.5534C104.859 40.5534 93.6206 45.8241 96.1092 48.2186C98.5977 50.6131 95.5527 66.7497 95.5527 66.7497L96.2405 79.8482C96.2405 79.8482 95.5017 88.9231 93.2908 91.0139C91.0799 93.1048 85.2957 98.2319 89.3827 95.779C103.713 87.1783 128.761 94.4355 128.761 94.4355L125.182 75.7195C125.182 75.7195 133.31 45.0771 130.103 42.4892C126.895 39.9013 123.869 39.5742 123.869 39.5742L120.452 33.8318Z" fill="#701010"/>
<path d="M49.8871 93.1987C50.5618 93.0914 51.2007 92.8591 51.7589 92.5181C52.3171 92.1772 52.7809 91.7358 53.1178 91.2252C53.4546 90.7146 53.6563 90.1471 53.7085 89.5628C53.7607 88.9784 53.6623 88.3914 53.4201 87.843L76.0702 71.4332L67.7711 69.2938L47.0391 85.5722C45.9873 85.9807 45.1475 86.7044 44.6789 87.6063C44.2102 88.5082 44.1453 89.5256 44.4963 90.4657C44.8474 91.4057 45.59 92.2032 46.5836 92.7069C47.5771 93.2106 48.7525 93.3856 49.8871 93.1987Z" fill="#FFB8B8"/>
<path d="M107.41 50.2753C107.41 50.2753 111.872 42.4701 101.189 43.8034C90.5052 45.1367 49.991 80.6251 49.991 80.6251L56.7711 88.2378L97.7169 57.2564L107.41 50.2753Z" fill="#701010"/>
<path d="M90.0118 37.036L47.6532 83.3773C46.9204 84.1816 46.5909 85.2012 46.7369 86.2126C46.8828 87.224 47.4924 88.1448 48.4319 88.7731C58.2686 109.169 87.6975 124.294 122.316 138.022C123.258 138.648 124.452 138.93 125.637 138.805C126.821 138.681 127.9 138.16 128.635 137.357L170.994 91.0156C171.727 90.2115 172.057 89.1918 171.911 88.1802C171.765 87.1686 171.155 86.2478 170.215 85.6198C141.163 71.6112 116.193 55.3809 96.3303 36.371C95.3884 35.7452 94.1945 35.4638 93.0101 35.5885C91.8257 35.7131 90.7475 36.2336 90.0118 37.036Z" fill="#E6E6E6"/>
<path d="M168.021 89.9613L155.127 104.067C147.251 112.632 135.726 118.187 123.069 119.519C110.413 120.851 97.6529 117.852 87.5774 111.176L51.4439 87.0908C50.9087 86.7339 50.561 86.2102 50.4773 85.6347C50.3936 85.0592 50.5807 84.4788 50.9974 84.0209L91.9286 39.2411C92.3476 38.7847 92.9615 38.4888 93.6356 38.4184C94.3097 38.348 94.989 38.5089 95.5244 38.8656C113.803 59.0212 138.27 74.7062 167.578 86.8939C168.112 87.2509 168.459 87.7744 168.542 88.3494C168.625 88.9245 168.437 89.5042 168.021 89.9613Z" fill="white"/>
<path d="M89.1667 62.3339L80.7698 71.5205C80.5469 71.7638 80.2201 71.9216 79.8611 71.9593C79.502 71.9969 79.1402 71.9113 78.8551 71.7212C78.5699 71.5311 78.3848 71.2522 78.3404 70.9456C78.296 70.6391 78.3959 70.33 78.6182 70.0863L87.0152 60.8998C87.1254 60.779 87.2624 60.678 87.4184 60.6024C87.5744 60.5269 87.7462 60.4783 87.9242 60.4595C88.1022 60.4407 88.2827 60.452 88.4555 60.4929C88.6284 60.5337 88.7901 60.6032 88.9314 60.6974C89.0728 60.7916 89.191 60.9087 89.2793 61.042C89.3677 61.1752 89.4244 61.3221 89.4462 61.474C89.4681 61.626 89.4547 61.7802 89.4067 61.9277C89.3587 62.0753 89.2772 62.2133 89.1667 62.3339Z" fill="#8F4343"/>
<path d="M104.917 55.5197L86.4766 75.694C86.3663 75.8147 86.2293 75.9156 86.0734 75.991C85.9174 76.0664 85.7456 76.1149 85.5677 76.1336C85.3899 76.1523 85.2094 76.1409 85.0367 76.1001C84.864 76.0593 84.7024 75.9898 84.5611 75.8956C84.4198 75.8015 84.3017 75.6845 84.2134 75.5513C84.125 75.4181 84.0683 75.2714 84.0464 75.1195C84.0245 74.9676 84.0378 74.8135 84.0856 74.666C84.1334 74.5186 84.2148 74.3806 84.3251 74.2599L102.765 54.0856C102.876 53.9647 103.013 53.8635 103.169 53.7878C103.325 53.7121 103.497 53.6635 103.675 53.6446C103.853 53.6257 104.033 53.637 104.206 53.6779C104.379 53.7187 104.541 53.7882 104.682 53.8825C104.824 53.9767 104.942 54.0939 105.03 54.2272C105.119 54.3606 105.175 54.5075 105.197 54.6595C105.219 54.8116 105.205 54.9659 105.157 55.1135C105.109 55.2611 105.028 55.3991 104.917 55.5197Z" fill="#8F4343"/>
<path d="M73.4663 89.1702C78.4305 89.1702 82.4548 85.7336 82.4548 81.4944C82.4548 77.2552 78.4305 73.8186 73.4663 73.8186C68.5021 73.8186 64.4778 77.2552 64.4778 81.4944C64.4778 85.7336 68.5021 89.1702 73.4663 89.1702Z" fill="#701010"/>
<path d="M105.896 71.4642L83.2475 96.2423C83.0111 96.4478 82.6944 96.5719 82.3578 96.5909C82.0212 96.6098 81.6882 96.5223 81.4223 96.3451C81.1564 96.1678 80.9762 95.9132 80.916 95.6298C80.8558 95.3463 80.9198 95.0539 81.0959 94.8082L103.744 70.0301C103.981 69.8245 104.297 69.7005 104.634 69.6815C104.971 69.6625 105.304 69.75 105.57 69.9273C105.836 70.1045 106.016 70.3591 106.076 70.6426C106.136 70.926 106.072 71.2185 105.896 71.4642Z" fill="#8F4343"/>
<path d="M120.589 65.8068L88.9768 100.391C88.7405 100.597 88.4238 100.721 88.0872 100.74C87.7506 100.759 87.4176 100.671 87.1517 100.494C86.8858 100.317 86.7055 100.062 86.6453 99.7785C86.5851 99.4951 86.6492 99.2026 86.8253 98.9569L118.437 64.3727C118.674 64.1672 118.99 64.0431 119.327 64.0242C119.663 64.0052 119.996 64.0927 120.262 64.2699C120.528 64.4472 120.708 64.7018 120.769 64.9853C120.829 65.2687 120.765 65.5611 120.589 65.8068Z" fill="#8F4343"/>
<path d="M120.479 81.1845L97.8303 105.963C97.594 106.168 97.2773 106.292 96.9407 106.311C96.6041 106.33 96.2711 106.243 96.0052 106.065C95.7393 105.888 95.559 105.634 95.4989 105.35C95.4387 105.067 95.5027 104.774 95.6788 104.528L118.327 79.7504C118.564 79.5449 118.88 79.4208 119.217 79.4018C119.554 79.3829 119.887 79.4704 120.152 79.6476C120.418 79.8249 120.599 80.0795 120.659 80.3629C120.719 80.6464 120.655 80.9388 120.479 81.1845Z" fill="#8F4343"/>
<path d="M150.447 84.2402L127.798 109.018C127.562 109.224 127.245 109.348 126.908 109.367C126.572 109.386 126.239 109.298 125.973 109.121C125.707 108.944 125.527 108.689 125.467 108.406C125.406 108.122 125.47 107.83 125.647 107.584L148.295 82.8061C148.531 82.6005 148.848 82.4765 149.185 82.4575C149.521 82.4385 149.854 82.526 150.12 82.7033C150.386 82.8805 150.566 83.1352 150.627 83.4186C150.687 83.702 150.623 83.9945 150.447 84.2402Z" fill="#701010"/>
<path d="M135.172 75.5273L103.56 110.111C103.323 110.317 103.007 110.441 102.67 110.46C102.333 110.479 102 110.392 101.735 110.214C101.469 110.037 101.288 109.782 101.228 109.499C101.168 109.216 101.232 108.923 101.408 108.677L133.02 74.0932C133.256 73.8876 133.573 73.7636 133.91 73.7446C134.246 73.7257 134.579 73.8131 134.845 73.9904C135.111 74.1676 135.291 74.4223 135.351 74.7057C135.412 74.9892 135.348 75.2816 135.172 75.5273Z" fill="#8F4343"/>
<path d="M97.9371 19.1909C97.9363 21.0555 98.4715 22.8917 99.4957 24.5384C100.52 26.1852 102.002 27.592 103.811 28.6355C105.621 29.6789 107.703 30.3271 109.874 30.5231C112.046 30.7191 114.24 30.4569 116.265 29.7596C118.29 29.0622 120.084 27.951 121.488 26.5236C122.893 25.0961 123.866 23.396 124.322 21.5724C124.777 19.7489 124.702 17.8577 124.102 16.0649C123.502 14.2721 122.396 12.6325 120.881 11.29L120.817 11.2354C120.71 11.1397 120.603 11.044 120.491 10.9528C120.49 10.9528 120.49 10.9527 120.489 10.9525C120.488 10.9523 120.488 10.952 120.487 10.9515C120.487 10.9511 120.486 10.9506 120.486 10.95C120.486 10.9495 120.486 10.9489 120.486 10.9483C120.347 10.8389 120.208 10.7296 120.064 10.6248C118.137 9.1817 115.763 8.24359 113.227 7.92278C110.692 7.60196 108.101 7.91203 105.767 8.81586C103.432 9.7197 101.452 11.179 100.063 13.019C98.6746 14.8591 97.9365 17.0019 97.9371 19.1909Z" fill="#2F2E41"/>
<path d="M114.563 31.3785C120.74 31.3785 125.748 27.1019 125.748 21.8266C125.748 16.5512 120.74 12.2747 114.563 12.2747C108.385 12.2747 103.377 16.5512 103.377 21.8266C103.377 27.1019 108.385 31.3785 114.563 31.3785Z" fill="#FFB8B8"/>
<path d="M102.638 24.3721C101.545 20.1646 103.125 15.4507 106.571 12.6418C108.304 11.2569 110.459 10.3177 112.789 9.93204C115.119 9.54637 117.529 9.72992 119.743 10.4616C120.024 10.5586 120.305 10.6647 120.581 10.7755L120.71 10.8271V10.8432C120.735 10.8579 120.759 10.8734 120.784 10.889C120.836 10.9308 120.9 10.9607 120.969 10.9761C121.94 10.9544 122.906 11.1082 123.803 11.4275C124.699 11.7467 125.507 12.2241 126.173 12.8285C127.906 14.4348 128.723 17.0308 128.472 20.1381L128.465 20.2353L128.368 20.2869C127.055 20.9972 125.693 21.6384 124.289 22.2071C119.379 24.1789 114.896 24.5442 110.587 23.3226L110.508 23.3002L108.7 20.7121C108.329 22.4972 108.527 28.418 106.397 28.7388L102.685 24.5506L102.638 24.3721Z" fill="#2F2E41"/>
<path d="M79.0922 32.6888C82.8986 31.0111 78.0032 24.9219 78.9869 21.3618C79.9706 17.8016 87.0545 16.6565 87.5057 13.019C87.957 9.38139 89.0186 5.62961 91.8295 2.86939C93.6256 1.10562 96.2723 -0.196468 98.9972 0.0244562C99.9191 0.0992029 100.811 0.342757 101.613 0.738529C102.415 1.1343 103.108 1.673 103.644 2.31792C104.18 2.96285 104.547 3.69884 104.719 4.4758C104.892 5.25275 104.867 6.0524 104.646 6.82028C105.421 5.88152 107.429 6.08498 107.926 7.15279C108.368 8.10206 107.392 9.2519 106.243 9.33589C104.74 10.921 103.019 12.6033 100.664 12.923C100.289 12.9966 99.8991 12.9964 99.524 12.9225C99.149 12.8485 98.7985 12.7028 98.499 12.4962C97.945 12.0419 97.9019 11.1337 98.5591 10.7941C95.5998 11.798 93.8648 14.5303 93.4257 17.2235C92.9867 19.9167 93.5941 22.6416 93.9944 25.3392C94.3947 28.0368 94.5672 30.8746 93.3286 33.3796C91.8652 36.3394 88.4959 38.4607 84.819 39.141C81.1421 39.8212 77.2262 39.1564 73.8979 37.6584C70.5697 36.1603 67.7942 33.8734 65.527 31.3095C69.4325 33.6777 74.8358 34.565 79.0922 32.6888Z" fill="#2F2E41"/>
<path d="M109.22 21.209C105.309 26.9624 112.673 36.6566 105.251 38.6697L105.862 38.1475C110.342 33.4417 100.979 23.4815 105.459 18.7756C106.155 18.0853 106.752 17.3268 107.239 16.5161" fill="#2F2E41"/>
<path d="M103.161 24.285C103.161 24.285 106.474 13.7232 120.678 11.2855C120.694 11.281 120.747 11.2627 120.817 11.2354C120.859 11.2126 120.913 11.1898 120.966 11.1671C120.806 11.0896 120.651 11.0213 120.491 10.9529L120.489 10.9525L120.487 10.9515L120.486 10.95L120.486 10.9483C120.347 10.8389 120.208 10.7296 120.064 10.6248L119.659 10.6385C119.659 10.6385 105.407 8.71114 103.161 24.285Z" fill="#FD6584"/>
<path d="M2.36903e-06 207.545C-0.000206689 207.605 0.0134226 207.664 0.040099 207.72C0.0667754 207.775 0.105978 207.825 0.155448 207.867C0.204918 207.91 0.263677 207.943 0.328351 207.966C0.393026 207.989 0.462336 208 0.532295 208H320.468C320.609 208 320.744 207.952 320.844 207.867C320.944 207.782 321 207.666 321 207.545C321 207.425 320.944 207.309 320.844 207.224C320.744 207.139 320.609 207.091 320.468 207.091H0.532268C0.462312 207.091 0.393008 207.102 0.328338 207.125C0.263667 207.148 0.204907 207.181 0.155441 207.224C0.105975 207.266 0.0667748 207.316 0.040099 207.371C0.0134232 207.427 -0.000203703 207.486 2.36903e-06 207.545Z" fill="#CCCCCC"/>
</g>
<defs>
<clipPath id="clip0_156_477">
<rect width="321" height="208" fill="white"/>
</clipPath>
</defs>
</svg>
