<svg width="191" height="168" viewBox="0 0 191 168" fill="none" xmlns="http://www.w3.org/2000/svg">
<g clip-path="url(#clip0_149_72)">
<path d="M27.7652 134.915L21.9585 131.256C21.6918 128.043 21.6085 124.818 21.7089 121.597L24.721 122.358L21.748 120.484C21.9122 116.502 22.2759 113.874 22.2759 113.874C22.2759 113.874 34.0162 121.418 41.5038 131.643L40.227 140.291L43.272 134.243C44.0509 135.477 44.7506 136.757 45.3669 138.078C51.5361 151.41 52.1355 164.21 46.7058 166.669C41.2761 169.127 31.8733 160.313 25.7042 146.981C23.7916 142.848 22.736 138.096 22.189 133.506L27.7652 134.915Z" fill="#5B7E52"/>
<path d="M15.8376 147.783L8.95476 147.62C7.04776 145.006 5.29131 142.288 3.69377 139.479L6.67006 138.59L3.14604 138.507C1.2055 135.013 0.144043 132.579 0.144043 132.579C0.144043 132.579 14.1361 133.033 25.8889 137.958L29.3147 146.013L28.7613 139.279C30.0725 139.937 31.3406 140.675 32.5581 141.491C44.8057 149.749 52.0077 160.4 48.6444 165.281C45.281 170.162 32.6259 167.425 20.3783 159.166C16.5815 156.606 13.1946 153.078 10.3277 149.428L15.8376 147.783Z" fill="#62A850"/>
<path d="M113.934 47.1579L108.541 46.5302L106.637 62.8505L101.777 85.3876C101.101 85.7131 100.549 86.2458 100.204 86.9064C99.8592 87.567 99.7391 88.3201 99.8617 89.0537C99.9843 89.7873 100.343 90.4621 100.885 90.9777C101.426 91.4933 102.122 91.8221 102.868 91.9151C103.613 92.0081 104.37 91.8604 105.024 91.494C105.678 91.1276 106.195 90.562 106.497 89.8815C106.8 89.201 106.873 88.4419 106.704 87.7172C106.536 86.9926 106.136 86.3411 105.563 85.8598L110.444 72.5799L113.934 47.1579Z" fill="#FFB6B6"/>
<path d="M121.77 163.507H117.326L115.211 146.551L121.77 146.551L121.77 163.507Z" fill="#FFB6B6"/>
<path d="M122.903 167.768L108.574 167.768V167.588C108.574 166.125 109.162 164.722 110.208 163.687C111.253 162.653 112.672 162.072 114.151 162.071H114.151L122.903 162.072L122.903 167.768Z" fill="#2F2E41"/>
<path d="M155.873 161.109L151.51 161.943L146.184 145.691L152.624 144.461L155.873 161.109Z" fill="#FFB6B6"/>
<path d="M157.803 165.081L143.734 167.768L143.7 167.592C143.42 166.156 143.727 164.668 144.556 163.456C145.385 162.243 146.666 161.407 148.118 161.129L148.119 161.129L156.711 159.488L157.803 165.081Z" fill="#2F2E41"/>
<path d="M114.802 20.4125L117.384 25.3129L136.722 21.0936L134.604 11.5926C132.927 4.07214 126.204 -1.35911 118.602 0.299581C111 1.95827 107.452 9.30878 109.129 16.8292L112.245 26.4339L115.398 25.746L114.802 20.4125Z" fill="#2F2E41"/>
<path d="M107.906 74.463C107.906 74.463 106.002 83.8786 108.541 97.6881C111.079 111.498 111.713 117.461 111.713 117.461C111.713 117.461 109.81 119.658 111.079 120.913C112.348 122.169 111.079 124.679 111.079 124.679L113.934 155.123L123.77 153.554L122.501 124.993C122.501 124.993 123.77 122.482 123.135 121.855C122.501 121.227 123.77 117.461 123.77 117.461L125.356 87.6448L135.192 120.285C135.192 120.285 134.24 121.541 135.192 122.482C136.144 123.424 138.047 128.132 138.047 128.132L144.393 150.101L154.546 148.218L148.835 123.11C148.835 123.11 149.469 121.541 148.517 120.599C148.24 120.311 148.037 119.961 147.926 119.578C147.816 119.195 147.801 118.792 147.883 118.402C147.883 118.402 148.835 117.461 147.565 116.205C146.296 114.95 145.662 109.928 145.662 109.928C145.662 109.928 144.71 76.3461 141.537 74.463C138.364 72.5799 107.906 74.463 107.906 74.463Z" fill="#2F2E41"/>
<path d="M122.252 22.5327C127.158 22.5327 131.136 18.5982 131.136 13.7448C131.136 8.89143 127.158 4.95697 122.252 4.95697C117.346 4.95697 113.368 8.89143 113.368 13.7448C113.368 18.5982 117.346 22.5327 122.252 22.5327Z" fill="#FFB6B6"/>
<path d="M134.772 24.9938C134.772 24.9938 141.22 24.2467 143.124 26.1298L141.22 64.1059C141.22 64.1059 142.489 65.0475 141.855 67.2444C141.486 68.6864 141.486 70.1964 141.855 71.6384C141.855 71.6384 143.758 73.8353 142.806 74.7769C141.855 75.7184 107.589 75.0907 107.589 75.0907C107.589 75.0907 106.32 72.8938 108.223 71.6384C110.127 70.3829 109.175 66.9306 109.175 66.9306C109.175 66.9306 108.541 65.989 110.127 64.4198C111.713 62.8505 112.983 49.9826 112.983 49.9826L108.858 34.2899C108.858 34.2899 113.01 29.6542 117.755 29.3043L134.772 24.9938Z" fill="#6C2929"/>
<path d="M113.773 34.5059L108.858 34.2899C108.858 34.2899 106.002 39.9393 105.685 44.9609L103.938 63.6942L115.203 65.3613L113.773 34.5059Z" fill="#6C2929"/>
<path d="M114.641 14.1806L111.341 9.9807C111.146 9.09643 111.314 8.17192 111.806 7.4092C112.298 6.64648 113.076 6.10758 113.969 5.91027L126.435 3.19027C127.329 2.99778 128.264 3.16313 129.035 3.6502C129.806 4.13727 130.351 4.90645 130.55 5.78967L130.557 5.82001L129.664 10.8916L129.508 10.8639C121.771 9.49934 119.567 9.97932 114.767 14.0732L114.641 14.1806Z" fill="#2F2E41"/>
<path d="M147.843 81.2862L147.248 56.5734L146.614 38.9977L138.999 39.9393L143.088 81.9471C142.653 82.4873 142.392 83.1442 142.338 83.8329C142.285 84.5216 142.441 85.2103 142.787 85.8101C143.134 86.4099 143.654 86.8932 144.281 87.1975C144.908 87.5018 145.612 87.613 146.304 87.5169C146.995 87.4208 147.642 87.1218 148.159 86.6584C148.677 86.195 149.043 85.5887 149.208 84.9177C149.374 84.2468 149.333 83.542 149.089 82.8946C148.846 82.2472 148.412 81.687 147.843 81.2862Z" fill="#FFB6B6"/>
<path d="M137.569 26.6596L143.124 26.1298C143.124 26.1298 144.075 26.1298 145.027 29.2683C145.979 32.4068 151.212 65.5773 151.212 65.5773L139.634 66.6167L137.569 26.6596Z" fill="#6C2929"/>
<path d="M103.058 65.8727H102.316V45.7545C102.316 44.2254 102.011 42.7113 101.42 41.2986C100.828 39.8859 99.9612 38.6023 98.8682 37.5211C97.7752 36.4398 96.4776 35.5821 95.0495 34.997C93.6214 34.4118 92.0907 34.1106 90.545 34.1106H47.4569C45.9111 34.1106 44.3805 34.4118 42.9524 34.997C41.5243 35.5821 40.2267 36.4398 39.1337 37.521C38.0406 38.6023 37.1736 39.8859 36.5821 41.2986C35.9905 42.7113 35.686 44.2254 35.686 45.7545V156.124C35.686 159.212 36.9262 162.174 39.1336 164.358C41.3411 166.541 44.3351 167.768 47.4569 167.768H90.5449C93.6667 167.768 96.6607 166.541 98.8682 164.358C101.076 162.174 102.316 159.213 102.316 156.124V80.1931H103.058V65.8727Z" fill="#3F3D56"/>
<path d="M91.02 37.14H85.3955C85.6542 37.7673 85.7529 38.4478 85.6831 39.1218C85.6132 39.7957 85.3768 40.4423 84.9948 41.0046C84.6128 41.5668 84.0969 42.0276 83.4925 42.3461C82.8881 42.6647 82.2137 42.8314 81.5289 42.8314H56.8443C56.1595 42.8314 55.4851 42.6647 54.8807 42.3461C54.2763 42.0276 53.7604 41.5668 53.3784 41.0046C52.9964 40.4423 52.76 39.7957 52.6901 39.1218C52.6203 38.4478 52.719 37.7672 52.9776 37.14H47.7244C45.3931 37.14 43.1572 38.0561 41.5087 39.6868C39.8602 41.3175 38.9341 43.5293 38.9341 45.8354V156.043C38.9341 157.185 39.1615 158.316 39.6032 159.371C40.045 160.426 40.6925 161.385 41.5087 162.192C42.325 162.999 43.294 163.64 44.3605 164.077C45.427 164.514 46.5701 164.739 47.7244 164.739H91.02C92.1743 164.739 93.3174 164.514 94.3839 164.077C95.4504 163.64 96.4194 162.999 97.2357 162.192C98.0519 161.385 98.6994 160.426 99.1412 159.371C99.5829 158.316 99.8103 157.185 99.8103 156.043V45.8355C99.8103 44.6935 99.5829 43.5628 99.1412 42.5078C98.6994 41.4528 98.0519 40.4943 97.2357 39.6868C96.4194 38.8794 95.4504 38.2389 94.3839 37.8019C93.3174 37.3649 92.1743 37.14 91.02 37.14Z" fill="white"/>
<path d="M62.4219 77.192L63.6191 81.2943L78.918 81.0273L78.7839 73.5109C78.6778 67.5613 74.4272 62.4299 68.4128 62.5349C62.3985 62.6399 58.5743 67.6696 58.6804 73.6192L59.5541 81.3653L62.0485 81.3217L62.4219 77.192Z" fill="#2F2E41"/>
<path d="M69.0966 80.0606C72.8876 80.0606 75.9608 77.0205 75.9608 73.2705C75.9608 69.5204 72.8876 66.4803 69.0966 66.4803C65.3056 66.4803 62.2324 69.5204 62.2324 73.2705C62.2324 77.0205 65.3056 80.0606 69.0966 80.0606Z" fill="#FFB6B6"/>
<path d="M82.7595 83.8594L82.604 86.7154C79.3096 90.1051 74.8157 92.1004 70.0659 92.2824C65.316 92.4644 60.6796 90.819 57.13 87.6915C56.9714 87.5534 56.8159 87.409 56.6636 87.2615C57.6154 86.3263 60.2425 84.0163 63.1583 83.8029L76.3062 82.9837C76.3062 82.9837 81.2873 82.4062 82.7595 83.8594Z" fill="#692626"/>
<path d="M76.6109 68.5026C76.6018 67.9827 76.4373 67.477 76.1381 67.0495C76.1065 67.0055 76.0748 66.9647 76.043 66.9239C75.7887 66.6028 75.4628 66.3443 75.0907 66.1684C74.7186 65.9925 74.3105 65.9042 73.8981 65.9102L68.9646 65.998L64.0341 66.0828C63.3278 66.0968 62.6558 66.387 62.1652 66.8899C61.6747 67.3928 61.4055 68.0675 61.4166 68.7662L62.5906 71.1044L63.2663 72.4477L63.3774 72.3849C67.6447 70.0122 69.3897 69.9808 75.0373 72.1872L75.1515 72.2312L75.5989 71.0981L76.6141 68.5277L76.6109 68.5026Z" fill="#2F2E41"/>
<path d="M83.8702 85.2749C82.4625 87.0554 80.7352 88.564 78.7747 89.7253L78.467 84.2705L82.7597 83.8594C82.7597 83.8594 83.2737 83.8594 83.8702 85.2749Z" fill="#692626"/>
<path d="M69.3547 92.6033C64.7695 92.6084 60.3429 90.9435 56.9194 87.9262C56.7577 87.7855 56.598 87.6373 56.4416 87.4857C54.5987 85.7639 53.1325 83.6863 52.1338 81.3815C51.1351 79.0767 50.6251 76.5936 50.6354 74.086C50.6354 69.1749 52.6076 64.465 56.1182 60.9923C59.6287 57.5197 64.39 55.5687 69.3547 55.5687C74.3193 55.5687 79.0807 57.5197 82.5912 60.9923C86.1017 64.465 88.0739 69.1749 88.0739 74.086C88.0895 78.2123 86.6963 82.2228 84.1201 85.4681C82.3704 87.6908 80.1307 89.489 77.5719 90.7255C75.013 91.9621 72.2025 92.6043 69.3547 92.6033ZM69.3547 56.1964C64.56 56.2018 59.9632 58.0883 56.5729 61.4421C53.1825 64.7959 51.2754 69.3431 51.27 74.086C51.2601 76.5093 51.7532 78.9087 52.7185 81.1359C53.6839 83.3631 55.1011 85.3705 56.8823 87.0341C57.0339 87.1809 57.1853 87.3214 57.3397 87.4558C59.1897 89.0785 61.3561 90.3092 63.7053 91.0719C66.0545 91.8347 68.5367 92.1135 70.999 91.891C73.4612 91.6686 75.8513 90.9496 78.022 89.7785C80.1926 88.6074 82.0977 87.0089 83.62 85.0816C86.1088 81.9466 87.4546 78.0721 87.4394 74.086C87.434 69.3431 85.5269 64.7959 82.1365 61.4421C78.7461 58.0883 74.1494 56.2018 69.3547 56.1964Z" fill="#3F3D56"/>
<path d="M86.1828 118.276H53.2056C52.8768 118.276 52.5512 118.212 52.2474 118.087C51.9436 117.963 51.6676 117.78 51.4351 117.55C51.2025 117.32 51.0181 117.047 50.8923 116.747C50.7664 116.446 50.7017 116.124 50.7017 115.799C50.7017 115.473 50.7664 115.151 50.8923 114.851C51.0181 114.55 51.2025 114.277 51.4351 114.047C51.6676 113.817 51.9436 113.635 52.2474 113.51C52.5512 113.386 52.8768 113.322 53.2056 113.322H86.1828C86.5116 113.322 86.8372 113.386 87.141 113.51C87.4448 113.635 87.7208 113.817 87.9533 114.047C88.1859 114.277 88.3703 114.55 88.4961 114.851C88.622 115.151 88.6867 115.473 88.6867 115.799C88.6867 116.124 88.622 116.446 88.4961 116.747C88.3703 117.047 88.1859 117.32 87.9533 117.55C87.7208 117.78 87.4448 117.963 87.141 118.087C86.8372 118.212 86.5116 118.276 86.1828 118.276Z" fill="#692626"/>
<path d="M86.1828 126.122H53.2056C52.5415 126.122 51.9046 125.861 51.4351 125.396C50.9655 124.932 50.7017 124.302 50.7017 123.645C50.7017 122.988 50.9655 122.358 51.4351 121.894C51.9046 121.429 52.5415 121.168 53.2056 121.168H86.1828C86.8469 121.168 87.4838 121.429 87.9533 121.894C88.4229 122.358 88.6867 122.988 88.6867 123.645C88.6867 124.302 88.4229 124.932 87.9533 125.396C87.4838 125.861 86.8469 126.122 86.1828 126.122Z" fill="#692626"/>
<path d="M78.1549 110.334H61.2339C60.5699 110.334 59.933 110.073 59.4634 109.609C58.9938 109.144 58.73 108.514 58.73 107.857C58.73 107.2 58.9938 106.57 59.4634 106.106C59.933 105.641 60.5699 105.38 61.2339 105.38H78.1549C78.819 105.38 79.4559 105.641 79.9255 106.106C80.3951 106.57 80.6589 107.2 80.6589 107.857C80.6589 108.514 80.3951 109.144 79.9255 109.609C79.4559 110.073 78.819 110.334 78.1549 110.334Z" fill="#692626"/>
<path d="M190.683 168H0.317276C0.233129 168 0.152433 167.967 0.0929325 167.908C0.0334318 167.849 0 167.769 0 167.686C0 167.603 0.0334318 167.523 0.0929325 167.464C0.152433 167.405 0.233129 167.372 0.317276 167.372H190.683C190.767 167.372 190.848 167.405 190.907 167.464C190.967 167.523 191 167.603 191 167.686C191 167.769 190.967 167.849 190.907 167.908C190.848 167.967 190.767 168 190.683 168Z" fill="#150C0C"/>
</g>
<defs>
<clipPath id="clip0_149_72">
<rect width="191" height="168" fill="white"/>
</clipPath>
</defs>
</svg>
